%TF.GenerationSoftware,KiCad,Pcbnew,(6.0.4)*%
%TF.CreationDate,2023-01-05T02:06:05-05:00*%
%TF.ProjectId,LEDModule,4c45444d-6f64-4756-9c65-2e6b69636164,rev?*%
%TF.SameCoordinates,Original*%
%TF.FileFunction,Legend,Top*%
%TF.FilePolarity,Positive*%
%FSLAX46Y46*%
G04 Gerber Fmt 4.6, Leading zero omitted, Abs format (unit mm)*
G04 Created by KiCad (PCBNEW (6.0.4)) date 2023-01-05 02:06:05*
%MOMM*%
%LPD*%
G01*
G04 APERTURE LIST*
G04 Aperture macros list*
%AMRoundRect*
0 Rectangle with rounded corners*
0 $1 Rounding radius*
0 $2 $3 $4 $5 $6 $7 $8 $9 X,Y pos of 4 corners*
0 Add a 4 corners polygon primitive as box body*
4,1,4,$2,$3,$4,$5,$6,$7,$8,$9,$2,$3,0*
0 Add four circle primitives for the rounded corners*
1,1,$1+$1,$2,$3*
1,1,$1+$1,$4,$5*
1,1,$1+$1,$6,$7*
1,1,$1+$1,$8,$9*
0 Add four rect primitives between the rounded corners*
20,1,$1+$1,$2,$3,$4,$5,0*
20,1,$1+$1,$4,$5,$6,$7,0*
20,1,$1+$1,$6,$7,$8,$9,0*
20,1,$1+$1,$8,$9,$2,$3,0*%
%AMRotRect*
0 Rectangle, with rotation*
0 The origin of the aperture is its center*
0 $1 length*
0 $2 width*
0 $3 Rotation angle, in degrees counterclockwise*
0 Add horizontal line*
21,1,$1,$2,0,0,$3*%
G04 Aperture macros list end*
%ADD10C,0.150000*%
%ADD11C,0.120000*%
%ADD12RoundRect,0.200000X-0.200000X-0.275000X0.200000X-0.275000X0.200000X0.275000X-0.200000X0.275000X0*%
%ADD13RotRect,2.100000X1.800000X210.000000*%
%ADD14RotRect,0.600000X0.500000X210.000000*%
%ADD15RotRect,1.000000X1.800000X210.000000*%
%ADD16RoundRect,0.250000X-0.220971X0.662913X-0.662913X0.220971X0.220971X-0.662913X0.662913X-0.220971X0*%
%ADD17RoundRect,0.250000X0.662913X0.220971X0.220971X0.662913X-0.662913X-0.220971X-0.220971X-0.662913X0*%
%ADD18R,0.650000X0.400000*%
%ADD19RoundRect,0.250000X-0.250000X-0.475000X0.250000X-0.475000X0.250000X0.475000X-0.250000X0.475000X0*%
%ADD20R,1.800000X2.100000*%
%ADD21R,0.500000X0.600000*%
%ADD22R,1.800000X1.000000*%
%ADD23C,4.300000*%
%ADD24RoundRect,0.250000X-0.250000X-1.500000X0.250000X-1.500000X0.250000X1.500000X-0.250000X1.500000X0*%
%ADD25RoundRect,0.234375X-0.515625X-1.465625X0.515625X-1.465625X0.515625X1.465625X-0.515625X1.465625X0*%
%ADD26RotRect,2.100000X1.800000X150.000000*%
%ADD27RotRect,1.000000X1.800000X150.000000*%
%ADD28RotRect,0.600000X0.500000X150.000000*%
G04 APERTURE END LIST*
D10*
X91619047Y-83071428D02*
X92380952Y-83071428D01*
X87619047Y-83071428D02*
X88380952Y-83071428D01*
X88000000Y-83452380D02*
X88000000Y-82690476D01*
X83380952Y-80452380D02*
X82809523Y-80452380D01*
X83095238Y-80452380D02*
X83095238Y-79452380D01*
X83000000Y-79595238D01*
X82904761Y-79690476D01*
X82809523Y-79738095D01*
X83761904Y-79547619D02*
X83809523Y-79500000D01*
X83904761Y-79452380D01*
X84142857Y-79452380D01*
X84238095Y-79500000D01*
X84285714Y-79547619D01*
X84333333Y-79642857D01*
X84333333Y-79738095D01*
X84285714Y-79880952D01*
X83714285Y-80452380D01*
X84333333Y-80452380D01*
X84619047Y-79452380D02*
X84952380Y-80452380D01*
X85285714Y-79452380D01*
%TO.C,R1*%
X82083333Y-92702380D02*
X81750000Y-92226190D01*
X81511904Y-92702380D02*
X81511904Y-91702380D01*
X81892857Y-91702380D01*
X81988095Y-91750000D01*
X82035714Y-91797619D01*
X82083333Y-91892857D01*
X82083333Y-92035714D01*
X82035714Y-92130952D01*
X81988095Y-92178571D01*
X81892857Y-92226190D01*
X81511904Y-92226190D01*
X83035714Y-92702380D02*
X82464285Y-92702380D01*
X82750000Y-92702380D02*
X82750000Y-91702380D01*
X82654761Y-91845238D01*
X82559523Y-91940476D01*
X82464285Y-91988095D01*
%TO.C,D3*%
X98436981Y-88079474D02*
X97936981Y-87213448D01*
X98143177Y-87094400D01*
X98290705Y-87064211D01*
X98420802Y-87099071D01*
X98509661Y-87157740D01*
X98646138Y-87298888D01*
X98717567Y-87422605D01*
X98771565Y-87611372D01*
X98777945Y-87717660D01*
X98743086Y-87847758D01*
X98643177Y-87960426D01*
X98436981Y-88079474D01*
X98720528Y-86761067D02*
X99256639Y-86451543D01*
X99158440Y-86948124D01*
X99282157Y-86876696D01*
X99388446Y-86870316D01*
X99453494Y-86887746D01*
X99542353Y-86946415D01*
X99661400Y-87152612D01*
X99667780Y-87258900D01*
X99650350Y-87323948D01*
X99591681Y-87412807D01*
X99344245Y-87555664D01*
X99237957Y-87562044D01*
X99172908Y-87544614D01*
%TO.C,R2*%
X86202030Y-97437732D02*
X85629610Y-97336717D01*
X85797969Y-97841793D02*
X85090862Y-97134687D01*
X85360236Y-96865312D01*
X85461251Y-96831641D01*
X85528595Y-96831641D01*
X85629610Y-96865312D01*
X85730625Y-96966328D01*
X85764297Y-97067343D01*
X85764297Y-97134687D01*
X85730625Y-97235702D01*
X85461251Y-97505076D01*
X85831641Y-96528595D02*
X85831641Y-96461251D01*
X85865312Y-96360236D01*
X86033671Y-96191877D01*
X86134687Y-96158206D01*
X86202030Y-96158206D01*
X86303045Y-96191877D01*
X86370389Y-96259221D01*
X86437732Y-96393908D01*
X86437732Y-97202030D01*
X86875465Y-96764297D01*
%TO.C,R3*%
X98972606Y-98212843D02*
X98871591Y-98785263D01*
X99376667Y-98616904D02*
X98669561Y-99324011D01*
X98400186Y-99054637D01*
X98366515Y-98953622D01*
X98366515Y-98886278D01*
X98400186Y-98785263D01*
X98501202Y-98684248D01*
X98602217Y-98650576D01*
X98669561Y-98650576D01*
X98770576Y-98684248D01*
X99039950Y-98953622D01*
X98029797Y-98684248D02*
X97592064Y-98246515D01*
X98097141Y-98212843D01*
X97996125Y-98111828D01*
X97962454Y-98010812D01*
X97962454Y-97943469D01*
X97996125Y-97842454D01*
X98164484Y-97674095D01*
X98265499Y-97640423D01*
X98332843Y-97640423D01*
X98433858Y-97674095D01*
X98635889Y-97876125D01*
X98669561Y-97977141D01*
X98669561Y-98044484D01*
%TO.C,Q1*%
X78154761Y-95547619D02*
X78059523Y-95500000D01*
X77964285Y-95404761D01*
X77821428Y-95261904D01*
X77726190Y-95214285D01*
X77630952Y-95214285D01*
X77678571Y-95452380D02*
X77583333Y-95404761D01*
X77488095Y-95309523D01*
X77440476Y-95119047D01*
X77440476Y-94785714D01*
X77488095Y-94595238D01*
X77583333Y-94500000D01*
X77678571Y-94452380D01*
X77869047Y-94452380D01*
X77964285Y-94500000D01*
X78059523Y-94595238D01*
X78107142Y-94785714D01*
X78107142Y-95119047D01*
X78059523Y-95309523D01*
X77964285Y-95404761D01*
X77869047Y-95452380D01*
X77678571Y-95452380D01*
X79059523Y-95452380D02*
X78488095Y-95452380D01*
X78773809Y-95452380D02*
X78773809Y-94452380D01*
X78678571Y-94595238D01*
X78583333Y-94690476D01*
X78488095Y-94738095D01*
%TO.C,C1*%
X80833333Y-90357142D02*
X80785714Y-90404761D01*
X80642857Y-90452380D01*
X80547619Y-90452380D01*
X80404761Y-90404761D01*
X80309523Y-90309523D01*
X80261904Y-90214285D01*
X80214285Y-90023809D01*
X80214285Y-89880952D01*
X80261904Y-89690476D01*
X80309523Y-89595238D01*
X80404761Y-89500000D01*
X80547619Y-89452380D01*
X80642857Y-89452380D01*
X80785714Y-89500000D01*
X80833333Y-89547619D01*
X81785714Y-90452380D02*
X81214285Y-90452380D01*
X81500000Y-90452380D02*
X81500000Y-89452380D01*
X81404761Y-89595238D01*
X81309523Y-89690476D01*
X81214285Y-89738095D01*
%TO.C,R5*%
X102852606Y-94332843D02*
X102751591Y-94905263D01*
X103256667Y-94736904D02*
X102549561Y-95444011D01*
X102280186Y-95174637D01*
X102246515Y-95073622D01*
X102246515Y-95006278D01*
X102280186Y-94905263D01*
X102381202Y-94804248D01*
X102482217Y-94770576D01*
X102549561Y-94770576D01*
X102650576Y-94804248D01*
X102919950Y-95073622D01*
X101505736Y-94400186D02*
X101842454Y-94736904D01*
X102212843Y-94433858D01*
X102145499Y-94433858D01*
X102044484Y-94400186D01*
X101876125Y-94231828D01*
X101842454Y-94130812D01*
X101842454Y-94063469D01*
X101876125Y-93962454D01*
X102044484Y-93794095D01*
X102145499Y-93760423D01*
X102212843Y-93760423D01*
X102313858Y-93794095D01*
X102482217Y-93962454D01*
X102515889Y-94063469D01*
X102515889Y-94130812D01*
%TO.C,D2*%
X88352380Y-99738095D02*
X87352380Y-99738095D01*
X87352380Y-99500000D01*
X87400000Y-99357142D01*
X87495238Y-99261904D01*
X87590476Y-99214285D01*
X87780952Y-99166666D01*
X87923809Y-99166666D01*
X88114285Y-99214285D01*
X88209523Y-99261904D01*
X88304761Y-99357142D01*
X88352380Y-99500000D01*
X88352380Y-99738095D01*
X87447619Y-98785714D02*
X87400000Y-98738095D01*
X87352380Y-98642857D01*
X87352380Y-98404761D01*
X87400000Y-98309523D01*
X87447619Y-98261904D01*
X87542857Y-98214285D01*
X87638095Y-98214285D01*
X87780952Y-98261904D01*
X88352380Y-98833333D01*
X88352380Y-98214285D01*
%TO.C,R4*%
X100912606Y-96272843D02*
X100811591Y-96845263D01*
X101316667Y-96676904D02*
X100609561Y-97384011D01*
X100340186Y-97114637D01*
X100306515Y-97013622D01*
X100306515Y-96946278D01*
X100340186Y-96845263D01*
X100441202Y-96744248D01*
X100542217Y-96710576D01*
X100609561Y-96710576D01*
X100710576Y-96744248D01*
X100979950Y-97013622D01*
X99835110Y-96138156D02*
X100306515Y-95666751D01*
X99734095Y-96575889D02*
X100407530Y-96239171D01*
X99969797Y-95801438D01*
%TO.C,*%
%TO.C,J1*%
X95666666Y-78452380D02*
X95666666Y-79166666D01*
X95619047Y-79309523D01*
X95523809Y-79404761D01*
X95380952Y-79452380D01*
X95285714Y-79452380D01*
X96666666Y-79452380D02*
X96095238Y-79452380D01*
X96380952Y-79452380D02*
X96380952Y-78452380D01*
X96285714Y-78595238D01*
X96190476Y-78690476D01*
X96095238Y-78738095D01*
%TO.C,D1*%
X84147098Y-83503717D02*
X83647098Y-84369742D01*
X83440902Y-84250695D01*
X83340993Y-84138027D01*
X83306134Y-84007929D01*
X83312513Y-83901641D01*
X83366512Y-83712874D01*
X83437941Y-83589156D01*
X83574418Y-83448008D01*
X83663277Y-83389339D01*
X83793374Y-83354480D01*
X83940902Y-83384669D01*
X84147098Y-83503717D01*
X82827440Y-82741812D02*
X83322312Y-83027526D01*
X83074876Y-82884669D02*
X82574876Y-83750695D01*
X82728783Y-83674596D01*
X82858881Y-83639736D01*
X82965169Y-83646116D01*
D11*
%TO.C,R1*%
X79262742Y-91727500D02*
X79737258Y-91727500D01*
X79262742Y-92772500D02*
X79737258Y-92772500D01*
%TO.C,D3*%
X96458142Y-87775833D02*
X100355256Y-85525833D01*
X100355256Y-85525833D02*
X100105256Y-85092820D01*
X99055256Y-83274167D02*
X95158142Y-85524167D01*
X99055256Y-83274167D02*
X99305256Y-83707180D01*
%TO.C,R2*%
X84157579Y-99129355D02*
X83129355Y-100157579D01*
X82870645Y-97842421D02*
X81842421Y-98870645D01*
%TO.C,R3*%
X95930645Y-97097579D02*
X94902421Y-96069355D01*
X97217579Y-95810645D02*
X96189355Y-94782421D01*
%TO.C,Q1*%
X80300000Y-96160000D02*
X81700000Y-96160000D01*
X81700000Y-93840000D02*
X79800000Y-93840000D01*
%TO.C,C1*%
X77738748Y-89265000D02*
X78261252Y-89265000D01*
X77738748Y-90735000D02*
X78261252Y-90735000D01*
%TO.C,R5*%
X101097579Y-91930645D02*
X100069355Y-90902421D01*
X99810645Y-93217579D02*
X98782421Y-92189355D01*
%TO.C,D2*%
X88700000Y-96700000D02*
X88700000Y-101200000D01*
X91300000Y-101200000D02*
X90800000Y-101200000D01*
X88700000Y-101200000D02*
X89200000Y-101200000D01*
X91300000Y-101200000D02*
X91300000Y-96700000D01*
%TO.C,R4*%
X99157579Y-93870645D02*
X98129355Y-92842421D01*
X97870645Y-95157579D02*
X96842421Y-94129355D01*
%TO.C,J1*%
X85600000Y-74500000D02*
X85600000Y-72750000D01*
X85600000Y-72750000D02*
X94400000Y-72750000D01*
X94400000Y-78000000D02*
X94400000Y-81750000D01*
X85600000Y-81750000D02*
X88250000Y-81750000D01*
X94400000Y-72750000D02*
X94400000Y-74500000D01*
X85600000Y-78000000D02*
X85600000Y-81750000D01*
X94400000Y-81750000D02*
X91750000Y-81750000D01*
%TO.C,D1*%
X83455256Y-87725833D02*
X83705256Y-87292820D01*
X84755256Y-85474167D02*
X80858142Y-83224167D01*
X84755256Y-85474167D02*
X84505256Y-85907180D01*
X79558142Y-85475833D02*
X83455256Y-87725833D01*
%TD*%
%LPC*%
D12*
%TO.C,R1*%
X78675000Y-92250000D03*
X80325000Y-92250000D03*
%TD*%
D13*
%TO.C,D3*%
X98449519Y-85125000D03*
D14*
X96241154Y-86400000D03*
D15*
X96674167Y-86150000D03*
%TD*%
D16*
%TO.C,R2*%
X84034144Y-97965856D03*
X81965856Y-100034144D03*
%TD*%
D17*
%TO.C,R3*%
X97094144Y-96974144D03*
X95025856Y-94905856D03*
%TD*%
D18*
%TO.C,Q1*%
X80050000Y-94350000D03*
X80050000Y-95000000D03*
X80050000Y-95650000D03*
X81950000Y-95650000D03*
X81950000Y-95000000D03*
X81950000Y-94350000D03*
%TD*%
D19*
%TO.C,C1*%
X77050000Y-90000000D03*
X78950000Y-90000000D03*
%TD*%
D17*
%TO.C,R5*%
X100974144Y-93094144D03*
X98905856Y-91025856D03*
%TD*%
D20*
%TO.C,D2*%
X90000000Y-99750000D03*
D21*
X90000000Y-97200000D03*
D22*
X90000000Y-97700000D03*
%TD*%
D17*
%TO.C,R4*%
X99034144Y-95034144D03*
X96965856Y-92965856D03*
%TD*%
D23*
%TO.C,*%
X90000000Y-90000000D03*
%TD*%
D24*
%TO.C,J1*%
X89000000Y-80500000D03*
X91000000Y-80500000D03*
D25*
X93350000Y-74750000D03*
X86650000Y-74750000D03*
%TD*%
D26*
%TO.C,D1*%
X82849519Y-85875000D03*
D27*
X81074167Y-84850000D03*
D28*
X80641154Y-84600000D03*
%TD*%
M02*
