%FSLAX45Y45*%
G04 Gerber Fmt 4.5, Leading zero omitted, Abs format (unit mm)*
G04 Created by KiCad (PCBNEW (6.0.4)) date 2023-01-05 02:06:12*
%MOMM*%
%LPD*%
G01*
G04 APERTURE LIST*
%TA.AperFunction,Profile*%
%ADD10C,0.100000*%
%TD*%
%ADD11C,0.200000*%
%ADD12C,0.430000*%
G04 APERTURE END LIST*
D10*
X8475000Y-7650000D02*
G75*
G03*
X9525000Y-7650000I525000J-1350000D01*
G01*
X9525000Y-7650000D02*
X9525000Y-7225000D01*
X9525000Y-7225000D02*
X8475000Y-7225000D01*
X8475000Y-7225000D02*
X8475000Y-7650000D01*
D11*
D12*
X8785000Y-8785000D02*
X9215000Y-9215000D01*
X9215000Y-8785000D02*
X8785000Y-9215000D01*
D11*
X7804128Y-10763967D02*
X7804128Y-10563967D01*
X7851747Y-10563967D01*
X7880319Y-10573491D01*
X7899367Y-10592538D01*
X7908890Y-10611586D01*
X7918414Y-10649681D01*
X7918414Y-10678252D01*
X7908890Y-10716348D01*
X7899367Y-10735395D01*
X7880319Y-10754443D01*
X7851747Y-10763967D01*
X7804128Y-10763967D01*
X8004128Y-10763967D02*
X8004128Y-10630633D01*
X8004128Y-10668729D02*
X8013652Y-10649681D01*
X8023176Y-10640157D01*
X8042224Y-10630633D01*
X8061271Y-10630633D01*
X8127938Y-10763967D02*
X8127938Y-10630633D01*
X8127938Y-10563967D02*
X8118414Y-10573491D01*
X8127938Y-10583014D01*
X8137462Y-10573491D01*
X8127938Y-10563967D01*
X8127938Y-10583014D01*
X8251747Y-10763967D02*
X8232700Y-10754443D01*
X8223176Y-10735395D01*
X8223176Y-10563967D01*
X8356509Y-10763967D02*
X8337462Y-10754443D01*
X8327938Y-10735395D01*
X8327938Y-10563967D01*
X8585081Y-10763967D02*
X8585081Y-10563967D01*
X8651748Y-10706824D01*
X8718414Y-10563967D01*
X8718414Y-10763967D01*
X8899367Y-10763967D02*
X8899367Y-10659205D01*
X8889843Y-10640157D01*
X8870795Y-10630633D01*
X8832700Y-10630633D01*
X8813652Y-10640157D01*
X8899367Y-10754443D02*
X8880319Y-10763967D01*
X8832700Y-10763967D01*
X8813652Y-10754443D01*
X8804129Y-10735395D01*
X8804129Y-10716348D01*
X8813652Y-10697300D01*
X8832700Y-10687776D01*
X8880319Y-10687776D01*
X8899367Y-10678252D01*
X8994605Y-10630633D02*
X8994605Y-10830633D01*
X8994605Y-10640157D02*
X9013652Y-10630633D01*
X9051748Y-10630633D01*
X9070795Y-10640157D01*
X9080319Y-10649681D01*
X9089843Y-10668729D01*
X9089843Y-10725871D01*
X9080319Y-10744919D01*
X9070795Y-10754443D01*
X9051748Y-10763967D01*
X9013652Y-10763967D01*
X8994605Y-10754443D01*
X9175557Y-10744919D02*
X9185081Y-10754443D01*
X9175557Y-10763967D01*
X9166033Y-10754443D01*
X9175557Y-10744919D01*
X9175557Y-10763967D01*
X9175557Y-10640157D02*
X9185081Y-10649681D01*
X9175557Y-10659205D01*
X9166033Y-10649681D01*
X9175557Y-10640157D01*
X9175557Y-10659205D01*
X7346509Y-10993491D02*
X7546509Y-11193490D01*
X7546509Y-10993491D02*
X7346509Y-11193490D01*
X7889843Y-11050633D02*
X7889843Y-11183967D01*
X7842224Y-10974443D02*
X7794605Y-11117300D01*
X7918414Y-11117300D01*
X7994605Y-11164919D02*
X8004128Y-11174443D01*
X7994605Y-11183967D01*
X7985081Y-11174443D01*
X7994605Y-11164919D01*
X7994605Y-11183967D01*
X8070795Y-10983967D02*
X8194605Y-10983967D01*
X8127938Y-11060157D01*
X8156509Y-11060157D01*
X8175557Y-11069681D01*
X8185081Y-11079205D01*
X8194605Y-11098252D01*
X8194605Y-11145871D01*
X8185081Y-11164919D01*
X8175557Y-11174443D01*
X8156509Y-11183967D01*
X8099367Y-11183967D01*
X8080319Y-11174443D01*
X8070795Y-11164919D01*
X8318414Y-10983967D02*
X8337462Y-10983967D01*
X8356509Y-10993491D01*
X8366033Y-11003014D01*
X8375557Y-11022062D01*
X8385081Y-11060157D01*
X8385081Y-11107776D01*
X8375557Y-11145871D01*
X8366033Y-11164919D01*
X8356509Y-11174443D01*
X8337462Y-11183967D01*
X8318414Y-11183967D01*
X8299367Y-11174443D01*
X8289843Y-11164919D01*
X8280319Y-11145871D01*
X8270795Y-11107776D01*
X8270795Y-11060157D01*
X8280319Y-11022062D01*
X8289843Y-11003014D01*
X8299367Y-10993491D01*
X8318414Y-10983967D01*
X8508890Y-10983967D02*
X8527938Y-10983967D01*
X8546986Y-10993491D01*
X8556510Y-11003014D01*
X8566033Y-11022062D01*
X8575557Y-11060157D01*
X8575557Y-11107776D01*
X8566033Y-11145871D01*
X8556510Y-11164919D01*
X8546986Y-11174443D01*
X8527938Y-11183967D01*
X8508890Y-11183967D01*
X8489843Y-11174443D01*
X8480319Y-11164919D01*
X8470795Y-11145871D01*
X8461271Y-11107776D01*
X8461271Y-11060157D01*
X8470795Y-11022062D01*
X8480319Y-11003014D01*
X8489843Y-10993491D01*
X8508890Y-10983967D01*
X8661271Y-11183967D02*
X8661271Y-11050633D01*
X8661271Y-11069681D02*
X8670795Y-11060157D01*
X8689843Y-11050633D01*
X8718414Y-11050633D01*
X8737462Y-11060157D01*
X8746986Y-11079205D01*
X8746986Y-11183967D01*
X8746986Y-11079205D02*
X8756510Y-11060157D01*
X8775557Y-11050633D01*
X8804129Y-11050633D01*
X8823176Y-11060157D01*
X8832700Y-11079205D01*
X8832700Y-11183967D01*
X8927938Y-11183967D02*
X8927938Y-11050633D01*
X8927938Y-11069681D02*
X8937462Y-11060157D01*
X8956510Y-11050633D01*
X8985081Y-11050633D01*
X9004129Y-11060157D01*
X9013652Y-11079205D01*
X9013652Y-11183967D01*
X9013652Y-11079205D02*
X9023176Y-11060157D01*
X9042224Y-11050633D01*
X9070795Y-11050633D01*
X9089843Y-11060157D01*
X9099367Y-11079205D01*
X9099367Y-11183967D01*
X9489843Y-10974443D02*
X9318414Y-11231586D01*
X9746986Y-10983967D02*
X9766033Y-10983967D01*
X9785081Y-10993491D01*
X9794605Y-11003014D01*
X9804129Y-11022062D01*
X9813652Y-11060157D01*
X9813652Y-11107776D01*
X9804129Y-11145871D01*
X9794605Y-11164919D01*
X9785081Y-11174443D01*
X9766033Y-11183967D01*
X9746986Y-11183967D01*
X9727938Y-11174443D01*
X9718414Y-11164919D01*
X9708890Y-11145871D01*
X9699367Y-11107776D01*
X9699367Y-11060157D01*
X9708890Y-11022062D01*
X9718414Y-11003014D01*
X9727938Y-10993491D01*
X9746986Y-10983967D01*
X9899367Y-11164919D02*
X9908890Y-11174443D01*
X9899367Y-11183967D01*
X9889843Y-11174443D01*
X9899367Y-11164919D01*
X9899367Y-11183967D01*
X10099367Y-11183967D02*
X9985081Y-11183967D01*
X10042224Y-11183967D02*
X10042224Y-10983967D01*
X10023176Y-11012538D01*
X10004129Y-11031586D01*
X9985081Y-11041110D01*
X10270795Y-10983967D02*
X10232700Y-10983967D01*
X10213652Y-10993491D01*
X10204129Y-11003014D01*
X10185081Y-11031586D01*
X10175557Y-11069681D01*
X10175557Y-11145871D01*
X10185081Y-11164919D01*
X10194605Y-11174443D01*
X10213652Y-11183967D01*
X10251748Y-11183967D01*
X10270795Y-11174443D01*
X10280319Y-11164919D01*
X10289843Y-11145871D01*
X10289843Y-11098252D01*
X10280319Y-11079205D01*
X10270795Y-11069681D01*
X10251748Y-11060157D01*
X10213652Y-11060157D01*
X10194605Y-11069681D01*
X10185081Y-11079205D01*
X10175557Y-11098252D01*
X10385081Y-11183967D02*
X10423176Y-11183967D01*
X10442224Y-11174443D01*
X10451748Y-11164919D01*
X10470795Y-11136348D01*
X10480319Y-11098252D01*
X10480319Y-11022062D01*
X10470795Y-11003014D01*
X10461271Y-10993491D01*
X10442224Y-10983967D01*
X10404129Y-10983967D01*
X10385081Y-10993491D01*
X10375557Y-11003014D01*
X10366033Y-11022062D01*
X10366033Y-11069681D01*
X10375557Y-11088729D01*
X10385081Y-11098252D01*
X10404129Y-11107776D01*
X10442224Y-11107776D01*
X10461271Y-11098252D01*
X10470795Y-11088729D01*
X10480319Y-11069681D01*
X10546986Y-10983967D02*
X10670795Y-10983967D01*
X10604129Y-11060157D01*
X10632700Y-11060157D01*
X10651748Y-11069681D01*
X10661271Y-11079205D01*
X10670795Y-11098252D01*
X10670795Y-11145871D01*
X10661271Y-11164919D01*
X10651748Y-11174443D01*
X10632700Y-11183967D01*
X10575557Y-11183967D01*
X10556509Y-11174443D01*
X10546986Y-11164919D01*
X10746986Y-10983967D02*
X10746986Y-11022062D01*
X10823176Y-10983967D02*
X10823176Y-11022062D01*
X11118414Y-11260157D02*
X11108890Y-11250633D01*
X11089843Y-11222062D01*
X11080319Y-11203014D01*
X11070795Y-11174443D01*
X11061271Y-11126824D01*
X11061271Y-11088729D01*
X11070795Y-11041110D01*
X11080319Y-11012538D01*
X11089843Y-10993491D01*
X11108890Y-10964919D01*
X11118414Y-10955395D01*
X11299367Y-11183967D02*
X11185081Y-11183967D01*
X11242224Y-11183967D02*
X11242224Y-10983967D01*
X11223176Y-11012538D01*
X11204128Y-11031586D01*
X11185081Y-11041110D01*
X11537462Y-11183967D02*
X11537462Y-10983967D01*
X11623176Y-11183967D02*
X11623176Y-11079205D01*
X11613652Y-11060157D01*
X11594605Y-11050633D01*
X11566033Y-11050633D01*
X11546986Y-11060157D01*
X11537462Y-11069681D01*
X11746986Y-11183967D02*
X11727938Y-11174443D01*
X11718414Y-11164919D01*
X11708890Y-11145871D01*
X11708890Y-11088729D01*
X11718414Y-11069681D01*
X11727938Y-11060157D01*
X11746986Y-11050633D01*
X11775557Y-11050633D01*
X11794605Y-11060157D01*
X11804128Y-11069681D01*
X11813652Y-11088729D01*
X11813652Y-11145871D01*
X11804128Y-11164919D01*
X11794605Y-11174443D01*
X11775557Y-11183967D01*
X11746986Y-11183967D01*
X11927938Y-11183967D02*
X11908890Y-11174443D01*
X11899367Y-11155395D01*
X11899367Y-10983967D01*
X12080319Y-11174443D02*
X12061271Y-11183967D01*
X12023176Y-11183967D01*
X12004128Y-11174443D01*
X11994605Y-11155395D01*
X11994605Y-11079205D01*
X12004128Y-11060157D01*
X12023176Y-11050633D01*
X12061271Y-11050633D01*
X12080319Y-11060157D01*
X12089843Y-11079205D01*
X12089843Y-11098252D01*
X11994605Y-11117300D01*
X12156509Y-11260157D02*
X12166033Y-11250633D01*
X12185081Y-11222062D01*
X12194605Y-11203014D01*
X12204128Y-11174443D01*
X12213652Y-11126824D01*
X12213652Y-11088729D01*
X12204128Y-11041110D01*
X12194605Y-11012538D01*
X12185081Y-10993491D01*
X12166033Y-10964919D01*
X12156509Y-10955395D01*
X12518414Y-11260157D02*
X12508890Y-11250633D01*
X12489843Y-11222062D01*
X12480319Y-11203014D01*
X12470795Y-11174443D01*
X12461271Y-11126824D01*
X12461271Y-11088729D01*
X12470795Y-11041110D01*
X12480319Y-11012538D01*
X12489843Y-10993491D01*
X12508890Y-10964919D01*
X12518414Y-10955395D01*
X12594605Y-11050633D02*
X12594605Y-11183967D01*
X12594605Y-11069681D02*
X12604128Y-11060157D01*
X12623176Y-11050633D01*
X12651747Y-11050633D01*
X12670795Y-11060157D01*
X12680319Y-11079205D01*
X12680319Y-11183967D01*
X12804128Y-11183967D02*
X12785081Y-11174443D01*
X12775557Y-11164919D01*
X12766033Y-11145871D01*
X12766033Y-11088729D01*
X12775557Y-11069681D01*
X12785081Y-11060157D01*
X12804128Y-11050633D01*
X12832700Y-11050633D01*
X12851747Y-11060157D01*
X12861271Y-11069681D01*
X12870795Y-11088729D01*
X12870795Y-11145871D01*
X12861271Y-11164919D01*
X12851747Y-11174443D01*
X12832700Y-11183967D01*
X12804128Y-11183967D01*
X12927938Y-11050633D02*
X13004128Y-11050633D01*
X12956509Y-10983967D02*
X12956509Y-11155395D01*
X12966033Y-11174443D01*
X12985081Y-11183967D01*
X13004128Y-11183967D01*
X13223176Y-11050633D02*
X13223176Y-11250633D01*
X13223176Y-11060157D02*
X13242224Y-11050633D01*
X13280319Y-11050633D01*
X13299367Y-11060157D01*
X13308890Y-11069681D01*
X13318414Y-11088729D01*
X13318414Y-11145871D01*
X13308890Y-11164919D01*
X13299367Y-11174443D01*
X13280319Y-11183967D01*
X13242224Y-11183967D01*
X13223176Y-11174443D01*
X13432700Y-11183967D02*
X13413652Y-11174443D01*
X13404128Y-11155395D01*
X13404128Y-10983967D01*
X13594605Y-11183967D02*
X13594605Y-11079205D01*
X13585081Y-11060157D01*
X13566033Y-11050633D01*
X13527938Y-11050633D01*
X13508890Y-11060157D01*
X13594605Y-11174443D02*
X13575557Y-11183967D01*
X13527938Y-11183967D01*
X13508890Y-11174443D01*
X13499367Y-11155395D01*
X13499367Y-11136348D01*
X13508890Y-11117300D01*
X13527938Y-11107776D01*
X13575557Y-11107776D01*
X13594605Y-11098252D01*
X13661271Y-11050633D02*
X13737462Y-11050633D01*
X13689843Y-10983967D02*
X13689843Y-11155395D01*
X13699367Y-11174443D01*
X13718414Y-11183967D01*
X13737462Y-11183967D01*
X13880319Y-11174443D02*
X13861271Y-11183967D01*
X13823176Y-11183967D01*
X13804128Y-11174443D01*
X13794605Y-11155395D01*
X13794605Y-11079205D01*
X13804128Y-11060157D01*
X13823176Y-11050633D01*
X13861271Y-11050633D01*
X13880319Y-11060157D01*
X13889843Y-11079205D01*
X13889843Y-11098252D01*
X13794605Y-11117300D01*
X14061271Y-11183967D02*
X14061271Y-10983967D01*
X14061271Y-11174443D02*
X14042224Y-11183967D01*
X14004128Y-11183967D01*
X13985081Y-11174443D01*
X13975557Y-11164919D01*
X13966033Y-11145871D01*
X13966033Y-11088729D01*
X13975557Y-11069681D01*
X13985081Y-11060157D01*
X14004128Y-11050633D01*
X14042224Y-11050633D01*
X14061271Y-11060157D01*
X14137462Y-11260157D02*
X14146986Y-11250633D01*
X14166033Y-11222062D01*
X14175557Y-11203014D01*
X14185081Y-11174443D01*
X14194605Y-11126824D01*
X14194605Y-11088729D01*
X14185081Y-11041110D01*
X14175557Y-11012538D01*
X14166033Y-10993491D01*
X14146986Y-10964919D01*
X14137462Y-10955395D01*
M02*
