%FSLAX45Y45*%
G04 Gerber Fmt 4.5, Leading zero omitted, Abs format (unit mm)*
G04 Created by KiCad (PCBNEW (6.0.4)) date 2022-12-18 21:04:50*
%MOMM*%
%LPD*%
G01*
G04 APERTURE LIST*
%TA.AperFunction,Profile*%
%ADD10C,0.100000*%
%TD*%
%ADD11C,0.200000*%
%ADD12C,0.040000*%
G04 APERTURE END LIST*
D10*
X8475000Y-7650000D02*
G75*
G03*
X9525000Y-7650000I525000J-1350000D01*
G01*
X8475000Y-7225000D02*
X8475000Y-7650000D01*
X9525000Y-7225000D02*
X8475000Y-7225000D01*
X9525000Y-7650000D02*
X9525000Y-7225000D01*
D11*
D12*
X7680000Y-9280000D02*
X7720000Y-9320000D01*
X7720000Y-9280000D02*
X7680000Y-9320000D01*
X7980000Y-9780000D02*
X8020000Y-9820000D01*
X8020000Y-9780000D02*
X7980000Y-9820000D01*
X8180000Y-8080000D02*
X8220000Y-8120000D01*
X8220000Y-8080000D02*
X8180000Y-8120000D01*
X8180000Y-8880000D02*
X8220000Y-8920000D01*
X8220000Y-8880000D02*
X8180000Y-8920000D01*
X8480000Y-9480000D02*
X8520000Y-9520000D01*
X8520000Y-9480000D02*
X8480000Y-9520000D01*
X8580000Y-8380000D02*
X8620000Y-8420000D01*
X8620000Y-8380000D02*
X8580000Y-8420000D01*
X9380000Y-8380000D02*
X9420000Y-8420000D01*
X9420000Y-8380000D02*
X9380000Y-8420000D01*
X9380000Y-9680000D02*
X9420000Y-9720000D01*
X9420000Y-9680000D02*
X9380000Y-9720000D01*
X9780000Y-8080000D02*
X9820000Y-8120000D01*
X9820000Y-8080000D02*
X9780000Y-8120000D01*
X9980000Y-8880000D02*
X10020000Y-8920000D01*
X10020000Y-8880000D02*
X9980000Y-8920000D01*
D11*
X7804128Y-10763967D02*
X7804128Y-10563967D01*
X7851747Y-10563967D01*
X7880319Y-10573491D01*
X7899367Y-10592538D01*
X7908890Y-10611586D01*
X7918414Y-10649681D01*
X7918414Y-10678252D01*
X7908890Y-10716348D01*
X7899367Y-10735395D01*
X7880319Y-10754443D01*
X7851747Y-10763967D01*
X7804128Y-10763967D01*
X8004128Y-10763967D02*
X8004128Y-10630633D01*
X8004128Y-10668729D02*
X8013652Y-10649681D01*
X8023176Y-10640157D01*
X8042224Y-10630633D01*
X8061271Y-10630633D01*
X8127938Y-10763967D02*
X8127938Y-10630633D01*
X8127938Y-10563967D02*
X8118414Y-10573491D01*
X8127938Y-10583014D01*
X8137462Y-10573491D01*
X8127938Y-10563967D01*
X8127938Y-10583014D01*
X8251747Y-10763967D02*
X8232700Y-10754443D01*
X8223176Y-10735395D01*
X8223176Y-10563967D01*
X8356509Y-10763967D02*
X8337462Y-10754443D01*
X8327938Y-10735395D01*
X8327938Y-10563967D01*
X8585081Y-10763967D02*
X8585081Y-10563967D01*
X8651748Y-10706824D01*
X8718414Y-10563967D01*
X8718414Y-10763967D01*
X8899367Y-10763967D02*
X8899367Y-10659205D01*
X8889843Y-10640157D01*
X8870795Y-10630633D01*
X8832700Y-10630633D01*
X8813652Y-10640157D01*
X8899367Y-10754443D02*
X8880319Y-10763967D01*
X8832700Y-10763967D01*
X8813652Y-10754443D01*
X8804129Y-10735395D01*
X8804129Y-10716348D01*
X8813652Y-10697300D01*
X8832700Y-10687776D01*
X8880319Y-10687776D01*
X8899367Y-10678252D01*
X8994605Y-10630633D02*
X8994605Y-10830633D01*
X8994605Y-10640157D02*
X9013652Y-10630633D01*
X9051748Y-10630633D01*
X9070795Y-10640157D01*
X9080319Y-10649681D01*
X9089843Y-10668729D01*
X9089843Y-10725871D01*
X9080319Y-10744919D01*
X9070795Y-10754443D01*
X9051748Y-10763967D01*
X9013652Y-10763967D01*
X8994605Y-10754443D01*
X9175557Y-10744919D02*
X9185081Y-10754443D01*
X9175557Y-10763967D01*
X9166033Y-10754443D01*
X9175557Y-10744919D01*
X9175557Y-10763967D01*
X9175557Y-10640157D02*
X9185081Y-10649681D01*
X9175557Y-10659205D01*
X9166033Y-10649681D01*
X9175557Y-10640157D01*
X9175557Y-10659205D01*
D12*
X7506509Y-11073491D02*
X7546509Y-11113491D01*
X7546509Y-11073491D02*
X7506509Y-11113491D01*
D11*
X7842224Y-10983967D02*
X7861271Y-10983967D01*
X7880319Y-10993491D01*
X7889843Y-11003014D01*
X7899367Y-11022062D01*
X7908890Y-11060157D01*
X7908890Y-11107776D01*
X7899367Y-11145871D01*
X7889843Y-11164919D01*
X7880319Y-11174443D01*
X7861271Y-11183967D01*
X7842224Y-11183967D01*
X7823176Y-11174443D01*
X7813652Y-11164919D01*
X7804128Y-11145871D01*
X7794605Y-11107776D01*
X7794605Y-11060157D01*
X7804128Y-11022062D01*
X7813652Y-11003014D01*
X7823176Y-10993491D01*
X7842224Y-10983967D01*
X7994605Y-11164919D02*
X8004128Y-11174443D01*
X7994605Y-11183967D01*
X7985081Y-11174443D01*
X7994605Y-11164919D01*
X7994605Y-11183967D01*
X8175557Y-11050633D02*
X8175557Y-11183967D01*
X8127938Y-10974443D02*
X8080319Y-11117300D01*
X8204128Y-11117300D01*
X8318414Y-10983967D02*
X8337462Y-10983967D01*
X8356509Y-10993491D01*
X8366033Y-11003014D01*
X8375557Y-11022062D01*
X8385081Y-11060157D01*
X8385081Y-11107776D01*
X8375557Y-11145871D01*
X8366033Y-11164919D01*
X8356509Y-11174443D01*
X8337462Y-11183967D01*
X8318414Y-11183967D01*
X8299367Y-11174443D01*
X8289843Y-11164919D01*
X8280319Y-11145871D01*
X8270795Y-11107776D01*
X8270795Y-11060157D01*
X8280319Y-11022062D01*
X8289843Y-11003014D01*
X8299367Y-10993491D01*
X8318414Y-10983967D01*
X8508890Y-10983967D02*
X8527938Y-10983967D01*
X8546986Y-10993491D01*
X8556510Y-11003014D01*
X8566033Y-11022062D01*
X8575557Y-11060157D01*
X8575557Y-11107776D01*
X8566033Y-11145871D01*
X8556510Y-11164919D01*
X8546986Y-11174443D01*
X8527938Y-11183967D01*
X8508890Y-11183967D01*
X8489843Y-11174443D01*
X8480319Y-11164919D01*
X8470795Y-11145871D01*
X8461271Y-11107776D01*
X8461271Y-11060157D01*
X8470795Y-11022062D01*
X8480319Y-11003014D01*
X8489843Y-10993491D01*
X8508890Y-10983967D01*
X8661271Y-11183967D02*
X8661271Y-11050633D01*
X8661271Y-11069681D02*
X8670795Y-11060157D01*
X8689843Y-11050633D01*
X8718414Y-11050633D01*
X8737462Y-11060157D01*
X8746986Y-11079205D01*
X8746986Y-11183967D01*
X8746986Y-11079205D02*
X8756510Y-11060157D01*
X8775557Y-11050633D01*
X8804129Y-11050633D01*
X8823176Y-11060157D01*
X8832700Y-11079205D01*
X8832700Y-11183967D01*
X8927938Y-11183967D02*
X8927938Y-11050633D01*
X8927938Y-11069681D02*
X8937462Y-11060157D01*
X8956510Y-11050633D01*
X8985081Y-11050633D01*
X9004129Y-11060157D01*
X9013652Y-11079205D01*
X9013652Y-11183967D01*
X9013652Y-11079205D02*
X9023176Y-11060157D01*
X9042224Y-11050633D01*
X9070795Y-11050633D01*
X9089843Y-11060157D01*
X9099367Y-11079205D01*
X9099367Y-11183967D01*
X9489843Y-10974443D02*
X9318414Y-11231586D01*
X9746986Y-10983967D02*
X9766033Y-10983967D01*
X9785081Y-10993491D01*
X9794605Y-11003014D01*
X9804129Y-11022062D01*
X9813652Y-11060157D01*
X9813652Y-11107776D01*
X9804129Y-11145871D01*
X9794605Y-11164919D01*
X9785081Y-11174443D01*
X9766033Y-11183967D01*
X9746986Y-11183967D01*
X9727938Y-11174443D01*
X9718414Y-11164919D01*
X9708890Y-11145871D01*
X9699367Y-11107776D01*
X9699367Y-11060157D01*
X9708890Y-11022062D01*
X9718414Y-11003014D01*
X9727938Y-10993491D01*
X9746986Y-10983967D01*
X9899367Y-11164919D02*
X9908890Y-11174443D01*
X9899367Y-11183967D01*
X9889843Y-11174443D01*
X9899367Y-11164919D01*
X9899367Y-11183967D01*
X10032700Y-10983967D02*
X10051748Y-10983967D01*
X10070795Y-10993491D01*
X10080319Y-11003014D01*
X10089843Y-11022062D01*
X10099367Y-11060157D01*
X10099367Y-11107776D01*
X10089843Y-11145871D01*
X10080319Y-11164919D01*
X10070795Y-11174443D01*
X10051748Y-11183967D01*
X10032700Y-11183967D01*
X10013652Y-11174443D01*
X10004129Y-11164919D01*
X9994605Y-11145871D01*
X9985081Y-11107776D01*
X9985081Y-11060157D01*
X9994605Y-11022062D01*
X10004129Y-11003014D01*
X10013652Y-10993491D01*
X10032700Y-10983967D01*
X10289843Y-11183967D02*
X10175557Y-11183967D01*
X10232700Y-11183967D02*
X10232700Y-10983967D01*
X10213652Y-11012538D01*
X10194605Y-11031586D01*
X10175557Y-11041110D01*
X10470795Y-10983967D02*
X10375557Y-10983967D01*
X10366033Y-11079205D01*
X10375557Y-11069681D01*
X10394605Y-11060157D01*
X10442224Y-11060157D01*
X10461271Y-11069681D01*
X10470795Y-11079205D01*
X10480319Y-11098252D01*
X10480319Y-11145871D01*
X10470795Y-11164919D01*
X10461271Y-11174443D01*
X10442224Y-11183967D01*
X10394605Y-11183967D01*
X10375557Y-11174443D01*
X10366033Y-11164919D01*
X10546986Y-10983967D02*
X10680319Y-10983967D01*
X10594605Y-11183967D01*
X10746986Y-10983967D02*
X10746986Y-11022062D01*
X10823176Y-10983967D02*
X10823176Y-11022062D01*
X11118414Y-11260157D02*
X11108890Y-11250633D01*
X11089843Y-11222062D01*
X11080319Y-11203014D01*
X11070795Y-11174443D01*
X11061271Y-11126824D01*
X11061271Y-11088729D01*
X11070795Y-11041110D01*
X11080319Y-11012538D01*
X11089843Y-10993491D01*
X11108890Y-10964919D01*
X11118414Y-10955395D01*
X11299367Y-11183967D02*
X11185081Y-11183967D01*
X11242224Y-11183967D02*
X11242224Y-10983967D01*
X11223176Y-11012538D01*
X11204128Y-11031586D01*
X11185081Y-11041110D01*
X11423176Y-10983967D02*
X11442224Y-10983967D01*
X11461271Y-10993491D01*
X11470795Y-11003014D01*
X11480319Y-11022062D01*
X11489843Y-11060157D01*
X11489843Y-11107776D01*
X11480319Y-11145871D01*
X11470795Y-11164919D01*
X11461271Y-11174443D01*
X11442224Y-11183967D01*
X11423176Y-11183967D01*
X11404128Y-11174443D01*
X11394605Y-11164919D01*
X11385081Y-11145871D01*
X11375557Y-11107776D01*
X11375557Y-11060157D01*
X11385081Y-11022062D01*
X11394605Y-11003014D01*
X11404128Y-10993491D01*
X11423176Y-10983967D01*
X11727938Y-11183967D02*
X11727938Y-10983967D01*
X11813652Y-11183967D02*
X11813652Y-11079205D01*
X11804128Y-11060157D01*
X11785081Y-11050633D01*
X11756509Y-11050633D01*
X11737462Y-11060157D01*
X11727938Y-11069681D01*
X11937462Y-11183967D02*
X11918414Y-11174443D01*
X11908890Y-11164919D01*
X11899367Y-11145871D01*
X11899367Y-11088729D01*
X11908890Y-11069681D01*
X11918414Y-11060157D01*
X11937462Y-11050633D01*
X11966033Y-11050633D01*
X11985081Y-11060157D01*
X11994605Y-11069681D01*
X12004128Y-11088729D01*
X12004128Y-11145871D01*
X11994605Y-11164919D01*
X11985081Y-11174443D01*
X11966033Y-11183967D01*
X11937462Y-11183967D01*
X12118414Y-11183967D02*
X12099367Y-11174443D01*
X12089843Y-11155395D01*
X12089843Y-10983967D01*
X12270795Y-11174443D02*
X12251747Y-11183967D01*
X12213652Y-11183967D01*
X12194605Y-11174443D01*
X12185081Y-11155395D01*
X12185081Y-11079205D01*
X12194605Y-11060157D01*
X12213652Y-11050633D01*
X12251747Y-11050633D01*
X12270795Y-11060157D01*
X12280319Y-11079205D01*
X12280319Y-11098252D01*
X12185081Y-11117300D01*
X12356509Y-11174443D02*
X12375557Y-11183967D01*
X12413652Y-11183967D01*
X12432700Y-11174443D01*
X12442224Y-11155395D01*
X12442224Y-11145871D01*
X12432700Y-11126824D01*
X12413652Y-11117300D01*
X12385081Y-11117300D01*
X12366033Y-11107776D01*
X12356509Y-11088729D01*
X12356509Y-11079205D01*
X12366033Y-11060157D01*
X12385081Y-11050633D01*
X12413652Y-11050633D01*
X12432700Y-11060157D01*
X12508890Y-11260157D02*
X12518414Y-11250633D01*
X12537462Y-11222062D01*
X12546986Y-11203014D01*
X12556509Y-11174443D01*
X12566033Y-11126824D01*
X12566033Y-11088729D01*
X12556509Y-11041110D01*
X12546986Y-11012538D01*
X12537462Y-10993491D01*
X12518414Y-10964919D01*
X12508890Y-10955395D01*
M02*
