%TF.GenerationSoftware,KiCad,Pcbnew,(6.0.4)*%
%TF.CreationDate,2022-12-18T21:04:36-05:00*%
%TF.ProjectId,LEDModule,4c45444d-6f64-4756-9c65-2e6b69636164,rev?*%
%TF.SameCoordinates,Original*%
%TF.FileFunction,Copper,L2,Bot*%
%TF.FilePolarity,Positive*%
%FSLAX46Y46*%
G04 Gerber Fmt 4.6, Leading zero omitted, Abs format (unit mm)*
G04 Created by KiCad (PCBNEW (6.0.4)) date 2022-12-18 21:04:36*
%MOMM*%
%LPD*%
G01*
G04 APERTURE LIST*
%TA.AperFunction,ViaPad*%
%ADD10C,0.800000*%
%TD*%
G04 APERTURE END LIST*
D10*
%TO.N,GND*%
X94000000Y-97000000D03*
X77000000Y-93000000D03*
X82000000Y-89000000D03*
X100000000Y-89000000D03*
X80000000Y-98000000D03*
X85000000Y-95000000D03*
X82000000Y-81000000D03*
X86000000Y-84000000D03*
X94000000Y-84000000D03*
X98000000Y-81000000D03*
%TD*%
%TA.AperFunction,Conductor*%
%TO.N,GND*%
G36*
X94683621Y-72778502D02*
G01*
X94730114Y-72832158D01*
X94741500Y-72884500D01*
X94741500Y-76470202D01*
X94740961Y-76481841D01*
X94736907Y-76525540D01*
X94747794Y-76581555D01*
X94748824Y-76587657D01*
X94756920Y-76644187D01*
X94760635Y-76652358D01*
X94761714Y-76656047D01*
X94762985Y-76659707D01*
X94764698Y-76668522D01*
X94768815Y-76676498D01*
X94768815Y-76676499D01*
X94790864Y-76719218D01*
X94793599Y-76724857D01*
X94813491Y-76768608D01*
X94813493Y-76768611D01*
X94817208Y-76776782D01*
X94823068Y-76783583D01*
X94825160Y-76786854D01*
X94827388Y-76789983D01*
X94831503Y-76797956D01*
X94837693Y-76804457D01*
X94837695Y-76804459D01*
X94870851Y-76839278D01*
X94875057Y-76843920D01*
X94878972Y-76848463D01*
X94912287Y-76887127D01*
X94919813Y-76892006D01*
X94922725Y-76894546D01*
X94925762Y-76896940D01*
X94931950Y-76903438D01*
X94939711Y-76907937D01*
X94939716Y-76907941D01*
X94981331Y-76932065D01*
X94986668Y-76935339D01*
X95034515Y-76966352D01*
X95043120Y-76968926D01*
X95046642Y-76970553D01*
X95050196Y-76971985D01*
X95057965Y-76976489D01*
X95081769Y-76982336D01*
X95100448Y-76988507D01*
X95742732Y-77258003D01*
X95748774Y-77260728D01*
X96017049Y-77390337D01*
X96406866Y-77578667D01*
X96412774Y-77581716D01*
X97053180Y-77933927D01*
X97058920Y-77937284D01*
X97679861Y-78322792D01*
X97685415Y-78326447D01*
X97947750Y-78509166D01*
X98285148Y-78744167D01*
X98290474Y-78748089D01*
X98388254Y-78824157D01*
X98867371Y-79196889D01*
X98872509Y-79201109D01*
X99424888Y-79679683D01*
X99429797Y-79684168D01*
X99956170Y-80191222D01*
X99960835Y-80195959D01*
X100459729Y-80730074D01*
X100464137Y-80735051D01*
X100934167Y-81294746D01*
X100938297Y-81299935D01*
X101378150Y-81883648D01*
X101382003Y-81889052D01*
X101790461Y-82495169D01*
X101794026Y-82500774D01*
X102169923Y-83127559D01*
X102173173Y-83133315D01*
X102463159Y-83680355D01*
X102515514Y-83779119D01*
X102518471Y-83785074D01*
X102826234Y-84447958D01*
X102828874Y-84454060D01*
X103101248Y-85132274D01*
X103103563Y-85138507D01*
X103339790Y-85830172D01*
X103341772Y-85836519D01*
X103541180Y-86539667D01*
X103542824Y-86546109D01*
X103704858Y-87258772D01*
X103706158Y-87265278D01*
X103764670Y-87604539D01*
X103830379Y-87985536D01*
X103831336Y-87992116D01*
X103917389Y-88717914D01*
X103917997Y-88724535D01*
X103956048Y-89306973D01*
X103965643Y-89453850D01*
X103965900Y-89460475D01*
X103970824Y-89855530D01*
X103975008Y-90191294D01*
X103974916Y-90197942D01*
X103945459Y-90928246D01*
X103945015Y-90934880D01*
X103877079Y-91662561D01*
X103876287Y-91669163D01*
X103770054Y-92392292D01*
X103768914Y-92398842D01*
X103624692Y-93115320D01*
X103623209Y-93121802D01*
X103441381Y-93829719D01*
X103439557Y-93836113D01*
X103220650Y-94533417D01*
X103218492Y-94539705D01*
X102963099Y-95224511D01*
X102960612Y-95230678D01*
X102669458Y-95901041D01*
X102666650Y-95907067D01*
X102340529Y-96561159D01*
X102337409Y-96567023D01*
X101977233Y-97203010D01*
X101973825Y-97208673D01*
X101762989Y-97539012D01*
X101580606Y-97824769D01*
X101576882Y-97830278D01*
X101151717Y-98424764D01*
X101147708Y-98430068D01*
X100691770Y-99001306D01*
X100687497Y-99006379D01*
X100202063Y-99552768D01*
X100197534Y-99557602D01*
X99683942Y-100077635D01*
X99679147Y-100082240D01*
X99138864Y-100574432D01*
X99133832Y-100578779D01*
X98568312Y-101041806D01*
X98563090Y-101045857D01*
X98227332Y-101292366D01*
X97973938Y-101478404D01*
X97968477Y-101482196D01*
X97357342Y-101883054D01*
X97351688Y-101886553D01*
X96720243Y-102254623D01*
X96714412Y-102257818D01*
X96064464Y-102592050D01*
X96058480Y-102594931D01*
X95391750Y-102894437D01*
X95385642Y-102896988D01*
X94704090Y-103160889D01*
X94697833Y-103163124D01*
X94003263Y-103390719D01*
X93996924Y-103392612D01*
X93672376Y-103480297D01*
X93291332Y-103583246D01*
X93284870Y-103584810D01*
X92570222Y-103737955D01*
X92563687Y-103739176D01*
X91841955Y-103854409D01*
X91835385Y-103855282D01*
X91428891Y-103898347D01*
X91108568Y-103932283D01*
X91101940Y-103932809D01*
X90372074Y-103971364D01*
X90365427Y-103971539D01*
X89634573Y-103971539D01*
X89627926Y-103971364D01*
X88898060Y-103932809D01*
X88891432Y-103932283D01*
X88571109Y-103898347D01*
X88164615Y-103855282D01*
X88158045Y-103854409D01*
X87436313Y-103739176D01*
X87429778Y-103737955D01*
X86715130Y-103584810D01*
X86708668Y-103583246D01*
X86327624Y-103480297D01*
X86003076Y-103392612D01*
X85996737Y-103390719D01*
X85302167Y-103163124D01*
X85295910Y-103160889D01*
X84614358Y-102896988D01*
X84608250Y-102894437D01*
X83941520Y-102594931D01*
X83935536Y-102592050D01*
X83285588Y-102257818D01*
X83279757Y-102254623D01*
X82648312Y-101886553D01*
X82642658Y-101883054D01*
X82031523Y-101482196D01*
X82026062Y-101478404D01*
X81772668Y-101292366D01*
X81436910Y-101045857D01*
X81431688Y-101041806D01*
X80866168Y-100578779D01*
X80861136Y-100574432D01*
X80320853Y-100082240D01*
X80316058Y-100077635D01*
X79802466Y-99557602D01*
X79797937Y-99552768D01*
X79312503Y-99006379D01*
X79308230Y-99001306D01*
X78852292Y-98430068D01*
X78848283Y-98424764D01*
X78423118Y-97830278D01*
X78419394Y-97824769D01*
X78237011Y-97539012D01*
X78026175Y-97208673D01*
X78022767Y-97203010D01*
X77662591Y-96567023D01*
X77659471Y-96561159D01*
X77333350Y-95907067D01*
X77330542Y-95901041D01*
X77039388Y-95230678D01*
X77036901Y-95224511D01*
X76781508Y-94539705D01*
X76779350Y-94533417D01*
X76560443Y-93836113D01*
X76558619Y-93829719D01*
X76376791Y-93121802D01*
X76375308Y-93115320D01*
X76231086Y-92398842D01*
X76229946Y-92392292D01*
X76123713Y-91669163D01*
X76122921Y-91662561D01*
X76054985Y-90934880D01*
X76054541Y-90928246D01*
X76025084Y-90197942D01*
X76024992Y-90191294D01*
X76026796Y-90046485D01*
X87336854Y-90046485D01*
X87337156Y-90050320D01*
X87355108Y-90278417D01*
X87362370Y-90370695D01*
X87427206Y-90689378D01*
X87530398Y-90997784D01*
X87670405Y-91291316D01*
X87845141Y-91565597D01*
X87847584Y-91568560D01*
X87847585Y-91568562D01*
X87997308Y-91750190D01*
X88052001Y-91816538D01*
X88287902Y-92040399D01*
X88549326Y-92233843D01*
X88690851Y-92313914D01*
X88829019Y-92392086D01*
X88829023Y-92392088D01*
X88832376Y-92393985D01*
X88835937Y-92395460D01*
X88835939Y-92395461D01*
X88955465Y-92444970D01*
X89132832Y-92518438D01*
X89236288Y-92547129D01*
X89442500Y-92604317D01*
X89442508Y-92604319D01*
X89446216Y-92605347D01*
X89767856Y-92653416D01*
X89771154Y-92653560D01*
X89882918Y-92658440D01*
X89882922Y-92658440D01*
X89884294Y-92658500D01*
X90082598Y-92658500D01*
X90324605Y-92643698D01*
X90328388Y-92642997D01*
X90328395Y-92642996D01*
X90528459Y-92605916D01*
X90644372Y-92584433D01*
X90853682Y-92518438D01*
X90950860Y-92487798D01*
X90950863Y-92487797D01*
X90954532Y-92486640D01*
X90958029Y-92485046D01*
X90958035Y-92485044D01*
X91246954Y-92353376D01*
X91246958Y-92353374D01*
X91250462Y-92351777D01*
X91527751Y-92181854D01*
X91530755Y-92179464D01*
X91530760Y-92179461D01*
X91655008Y-92080629D01*
X91782264Y-91979405D01*
X91784958Y-91976664D01*
X91784962Y-91976660D01*
X92007513Y-91750190D01*
X92007517Y-91750185D01*
X92010208Y-91747447D01*
X92208185Y-91489439D01*
X92373242Y-91209227D01*
X92502920Y-90910988D01*
X92595285Y-90599169D01*
X92648961Y-90278417D01*
X92663146Y-89953515D01*
X92650388Y-89791410D01*
X92637932Y-89633140D01*
X92637932Y-89633137D01*
X92637630Y-89629305D01*
X92572794Y-89310622D01*
X92469602Y-89002216D01*
X92329595Y-88708684D01*
X92154859Y-88434403D01*
X92007470Y-88255606D01*
X91950442Y-88186425D01*
X91950438Y-88186420D01*
X91947999Y-88183462D01*
X91712098Y-87959601D01*
X91450674Y-87766157D01*
X91245781Y-87650234D01*
X91170981Y-87607914D01*
X91170977Y-87607912D01*
X91167624Y-87606015D01*
X90867168Y-87481562D01*
X90763712Y-87452871D01*
X90557500Y-87395683D01*
X90557492Y-87395681D01*
X90553784Y-87394653D01*
X90232144Y-87346584D01*
X90228846Y-87346440D01*
X90117082Y-87341560D01*
X90117078Y-87341560D01*
X90115706Y-87341500D01*
X89917402Y-87341500D01*
X89675395Y-87356302D01*
X89671612Y-87357003D01*
X89671605Y-87357004D01*
X89515511Y-87385935D01*
X89355628Y-87415567D01*
X89171058Y-87473762D01*
X89049140Y-87512202D01*
X89049137Y-87512203D01*
X89045468Y-87513360D01*
X89041971Y-87514954D01*
X89041965Y-87514956D01*
X88753046Y-87646624D01*
X88753042Y-87646626D01*
X88749538Y-87648223D01*
X88472249Y-87818146D01*
X88469245Y-87820536D01*
X88469240Y-87820539D01*
X88344992Y-87919371D01*
X88217736Y-88020595D01*
X88215042Y-88023336D01*
X88215038Y-88023340D01*
X87992487Y-88249810D01*
X87992483Y-88249815D01*
X87989792Y-88252553D01*
X87791815Y-88510561D01*
X87626758Y-88790773D01*
X87497080Y-89089012D01*
X87404715Y-89400831D01*
X87351039Y-89721583D01*
X87336854Y-90046485D01*
X76026796Y-90046485D01*
X76029176Y-89855530D01*
X76034100Y-89460475D01*
X76034357Y-89453850D01*
X76043953Y-89306973D01*
X76082003Y-88724535D01*
X76082611Y-88717914D01*
X76168664Y-87992116D01*
X76169621Y-87985536D01*
X76235330Y-87604539D01*
X76293842Y-87265278D01*
X76295142Y-87258772D01*
X76457176Y-86546109D01*
X76458820Y-86539667D01*
X76658228Y-85836519D01*
X76660210Y-85830172D01*
X76896437Y-85138507D01*
X76898752Y-85132274D01*
X77171126Y-84454060D01*
X77173766Y-84447958D01*
X77481529Y-83785074D01*
X77484486Y-83779119D01*
X77536841Y-83680355D01*
X77826827Y-83133315D01*
X77830077Y-83127559D01*
X78205974Y-82500774D01*
X78209539Y-82495169D01*
X78617997Y-81889052D01*
X78621850Y-81883648D01*
X79061703Y-81299935D01*
X79065833Y-81294746D01*
X79535863Y-80735051D01*
X79540271Y-80730074D01*
X80039165Y-80195959D01*
X80043830Y-80191222D01*
X80570203Y-79684168D01*
X80575112Y-79679683D01*
X81127491Y-79201109D01*
X81132629Y-79196889D01*
X81611746Y-78824157D01*
X81709526Y-78748089D01*
X81714852Y-78744167D01*
X82052250Y-78509166D01*
X82314585Y-78326447D01*
X82320139Y-78322792D01*
X82941080Y-77937284D01*
X82946820Y-77933927D01*
X83587226Y-77581716D01*
X83593134Y-77578667D01*
X83982951Y-77390337D01*
X84251226Y-77260728D01*
X84257268Y-77258002D01*
X84582434Y-77121566D01*
X84892526Y-76991455D01*
X84914215Y-76984583D01*
X84930336Y-76981038D01*
X84938210Y-76976727D01*
X84944732Y-76974282D01*
X84951140Y-76971415D01*
X84959771Y-76968949D01*
X84967363Y-76964159D01*
X84967365Y-76964158D01*
X85004711Y-76940594D01*
X85011418Y-76936646D01*
X85058099Y-76911089D01*
X85064451Y-76904737D01*
X85070024Y-76900560D01*
X85075362Y-76896017D01*
X85082958Y-76891224D01*
X85118138Y-76851390D01*
X85123483Y-76845703D01*
X85154745Y-76814440D01*
X85161093Y-76808092D01*
X85165406Y-76800214D01*
X85169599Y-76794619D01*
X85173437Y-76788776D01*
X85179378Y-76782049D01*
X85183191Y-76773927D01*
X85183194Y-76773923D01*
X85201975Y-76733922D01*
X85205507Y-76726967D01*
X85209749Y-76719218D01*
X85231040Y-76680328D01*
X85232967Y-76671563D01*
X85235417Y-76665028D01*
X85237466Y-76658326D01*
X85241281Y-76650200D01*
X85249463Y-76597651D01*
X85250897Y-76590006D01*
X85262316Y-76538068D01*
X85258792Y-76486376D01*
X85258500Y-76477806D01*
X85258500Y-72884500D01*
X85278502Y-72816379D01*
X85332158Y-72769886D01*
X85384500Y-72758500D01*
X94615500Y-72758500D01*
X94683621Y-72778502D01*
G37*
%TD.AperFunction*%
%TD*%
M02*
